<?xml version="1.0" encoding="utf-8"?>
<!-- Generator: Adobe Illustrator 16.0.0, SVG Export Plug-In . SVG Version: 6.00 Build 0)  -->
<!DOCTYPE svg PUBLIC "-//W3C//DTD SVG 1.1//EN" "http://www.w3.org/Graphics/SVG/1.1/DTD/svg11.dtd">
<svg version="1.1" xmlns="http://www.w3.org/2000/svg" xmlns:xlink="http://www.w3.org/1999/xlink" x="0px" y="0px" width="1204px"
	 height="771px" viewBox="0 0 1204 771" enable-background="new 0 0 1204 771" xml:space="preserve" preserveAspectRatio = "none">
<g id="Capa_6" display="none">
</g>
<g id="Capa_5">
</g>
<g id="Capa_2">
	<g>
		<defs>
			<path id="SVGID_54_" d="M1.747,771.211h1078.974l-22.241-52.711c-64.426-136.197-216.921-206.162-398.743-142.744
				c-181.824,63.414-279.068,159.342-426.924,40.367C152.417,551.432,75.572,511.355,1.747,489.311V771.211z"/>
		</defs>
		<clipPath id="SVGID_1_">
			<use xlink:href="#SVGID_54_"  overflow="visible"/>
		</clipPath>
		<defs>
			<filter id="Adobe_OpacityMaskFilter" filterUnits="userSpaceOnUse" x="-107.865" y="69.772" width="1298.196" height="1120.978">
				<feColorMatrix  type="matrix" values="1 0 0 0 0  0 1 0 0 0  0 0 1 0 0  0 0 0 1 0"/>
			</filter>
		</defs>
		<mask maskUnits="userSpaceOnUse" x="-107.865" y="69.772" width="1298.196" height="1120.978" id="SVGID_2_">
			<g filter="url(#Adobe_OpacityMaskFilter)">
				
					<linearGradient id="SVGID_3_" gradientUnits="userSpaceOnUse" x1="-1406.5781" y1="1551.1328" x2="-1404.5612" y2="1551.1328" gradientTransform="matrix(742.6995 -354.6234 -354.6234 -742.6995 1594163.5 654380.4375)">
					<stop  offset="0" style="stop-color:#FFFFFF"/>
					<stop  offset="1" style="stop-color:#808080"/>
				</linearGradient>
				<polygon clip-path="url(#SVGID_1_)" fill="url(#SVGID_3_)" points="-107.865,541.646 880.398,69.772 1190.331,718.873 
					202.068,1190.75 				"/>
			</g>
		</mask>
		
			<linearGradient id="SVGID_5_" gradientUnits="userSpaceOnUse" x1="-1406.5781" y1="1551.1328" x2="-1404.5612" y2="1551.1328" gradientTransform="matrix(742.6995 -354.6234 -354.6234 -742.6995 1594163.5 654380.4375)">
			<stop  offset="0" style="stop-color:#3993FF"/>
			<stop  offset="1" style="stop-color:#FFFFFF"/>
		</linearGradient>
		<polygon clip-path="url(#SVGID_1_)" mask="url(#SVGID_2_)" fill="url(#SVGID_5_)" points="-107.865,541.646 880.398,69.772 
			1190.331,718.873 202.068,1190.75 		"/>
	</g>
	<linearGradient id="SVGID_6_" gradientUnits="userSpaceOnUse" x1="778.9551" y1="918.7412" x2="1265.8965" y2="75.3339">
		<stop  offset="0" style="stop-color:#3993FF"/>
		<stop  offset="1" style="stop-color:#FFFFFF;stop-opacity:0.2"/>
	</linearGradient>
	<path opacity="0.5" fill="url(#SVGID_6_)" d="M910.578,316.299c-34.884,189.379-6.456,229.566-174.842,317.105
		c-87.028,45.244-157.88,77.768-211.811,138.096H1204V39.598C1065.092,41.606,943.285,138.733,910.578,316.299"/>
</g>
<g id="Capa_4">
</g>
<g id="Capa_1">
</g>
<g id="Capa_3" display="none">
</g>
</svg>
